<?xml version="1.0" encoding="UTF-8"?>
<svg xmlns="http://www.w3.org/2000/svg" width="1280" height="280" viewBox="0 0 640 140" role="img" aria-labelledby="title desc">
  <title id="title">THE BEAUTY SIDE - wordmark (2x)</title>
  <desc id="desc">2x size wordmark logo for THE BEAUTY SIDE by Dentistul meu</desc>
  <defs>
    <style>
      .brand { font-family: 'Inter', -apple-system, BlinkMacSystemFont, 'Segoe UI', Roboto, Arial, sans-serif; font-weight: 800; letter-spacing: 0.5px; }
      .sub   { font-family: 'Inter', -apple-system, BlinkMacSystemFont, 'Segoe UI', Roboto, Arial, sans-serif; font-weight: 600; letter-spacing: 0.3px; }
    </style>
    <linearGradient id="g" x1="0" y1="0" x2="1" y2="1">
      <stop offset="0" stop-color="#0a7a3d"/>
      <stop offset="1" stop-color="#19b364"/>
    </linearGradient>
  </defs>

  <g transform="translate(8,8)">
    <rect x="0" y="0" rx="16" ry="16" width="124" height="124" fill="url(#g)"/>
    <path d="M34 28h30c14 0 24 9 24 20c0 8-5 15-13 18c10 3 17 11 17 21c0 14-12 25-28 25H34V28zm20 16v16h8c6 0 10-3 10-8s-4-8-10-8h-8zm0 32v24h10c8 0 12-4 12-12s-4-12-12-12h-10z" fill="#ffffff"/>
  </g>

  <g transform="translate(152,52)">
    <text class="brand" x="0" y="0" font-size="36" fill="#111111">THE BEAUTY SIDE</text>
    <text class="sub"   x="2" y="32" font-size="18" fill="#4a4a4a">by Dentistul meu</text>
  </g>
</svg>
